<svg width="215" height="38" viewBox="0 0 215 38" fill="none" xmlns="http://www.w3.org/2000/svg">
<path d="M13.95 37.6C11.1833 37.6 8.8 36.9083 6.8 35.525C4.8 34.125 3.25833 32.1917 2.175 29.725C1.09167 27.2417 0.55 24.3667 0.55 21.1C0.55 17.6167 1.13333 14.6833 2.3 12.3C3.48333 9.91667 5.08333 8.11667 7.1 6.9C9.13333 5.66666 11.4167 5.05 13.95 5.05C17.3 5.05 19.9917 5.89166 22.025 7.575C24.075 9.24167 25.4833 11.4167 26.25 14.1L22.05 14.95C21.4 13 20.3583 11.45 18.925 10.3C17.5083 9.13333 15.85 8.55 13.95 8.55C12.3 8.55 10.775 9.025 9.375 9.975C7.99167 10.9083 6.875 12.3083 6.025 14.175C5.175 16.0417 4.75 18.35 4.75 21.1C4.75 23.6 5.08333 25.825 5.75 27.775C6.43333 29.725 7.45 31.2583 8.8 32.375C10.1667 33.4917 11.8833 34.05 13.95 34.05C16.4333 34.05 18.4 33.3833 19.85 32.05C21.3167 30.7167 22.05 28.9667 22.05 26.8H26.3C26.3 29.05 25.7833 30.9833 24.75 32.6C23.7167 34.2 22.2667 35.4333 20.4 36.3C18.55 37.1667 16.4 37.6 13.95 37.6ZM33.7141 37V2.9H37.6141V37H33.7141ZM49.9277 7.45C49.1277 7.45 48.4944 7.225 48.0277 6.775C47.5611 6.30833 47.3277 5.7 47.3277 4.95C47.3277 4.21666 47.5611 3.63333 48.0277 3.2C48.4944 2.76667 49.1277 2.55 49.9277 2.55C50.7277 2.55 51.3611 2.76667 51.8277 3.2C52.2944 3.63333 52.5277 4.21666 52.5277 4.95C52.5277 5.7 52.2944 6.30833 51.8277 6.775C51.3611 7.225 50.7277 7.45 49.9277 7.45ZM47.9777 37V13.05H51.8777V37H47.9777ZM70.9203 37.6C68.8536 37.6 67.0036 37.075 65.3703 36.025C63.7536 34.9583 62.4703 33.4833 61.5203 31.6C60.587 29.7167 60.1203 27.55 60.1203 25.1C60.1203 22.4833 60.587 20.2333 61.5203 18.35C62.4536 16.4667 63.7286 15.025 65.3453 14.025C66.9786 13.0083 68.837 12.5 70.9203 12.5C72.737 12.5 74.287 12.8667 75.5703 13.6C76.8536 14.3333 77.887 15.325 78.6703 16.575C79.4536 17.825 79.9953 19.2417 80.2953 20.825C80.612 22.3917 80.7036 24.0167 80.5703 25.7H63.2703V23.3H77.9953L76.8453 24.05C76.8953 23.0667 76.837 22.0833 76.6703 21.1C76.5203 20.1167 76.2286 19.2167 75.7953 18.4C75.362 17.5667 74.7536 16.9 73.9703 16.4C73.187 15.9 72.187 15.65 70.9703 15.65C69.437 15.65 68.1536 16.0417 67.1203 16.825C66.087 17.6083 65.312 18.6417 64.7953 19.925C64.2786 21.1917 64.0203 22.5667 64.0203 24.05V25.65C64.0203 27.3167 64.2703 28.8083 64.7703 30.125C65.287 31.4417 66.0536 32.4833 67.0703 33.25C68.087 34.0167 69.3703 34.4 70.9203 34.4C72.4703 34.4 73.7453 34.025 74.7453 33.275C75.7453 32.525 76.3536 31.4167 76.5703 29.95H80.6203C80.3703 31.5333 79.8036 32.9 78.9203 34.05C78.037 35.1833 76.912 36.0583 75.5453 36.675C74.1786 37.2917 72.637 37.6 70.9203 37.6ZM105.304 37V22.95C105.304 20.6667 104.754 18.9333 103.654 17.75C102.571 16.55 101.087 15.95 99.2039 15.95C97.7706 15.95 96.5289 16.3417 95.4789 17.125C94.4289 17.9083 93.6206 19.0333 93.0539 20.5C92.4872 21.95 92.2039 23.6833 92.2039 25.7H90.7039C90.7039 22.9167 91.0706 20.5417 91.8039 18.575C92.5372 16.6083 93.6039 15.1083 95.0039 14.075C96.4206 13.025 98.1372 12.5 100.154 12.5C102.037 12.5 103.646 12.925 104.979 13.775C106.329 14.6083 107.362 15.8083 108.079 17.375C108.796 18.9417 109.154 20.8 109.154 22.95V37H105.304ZM88.3039 37V13.1H91.6539L92.2039 18.6V37H88.3039ZM125.83 37.6C124.53 37.6 123.363 37.35 122.33 36.85C121.296 36.35 120.48 35.6 119.88 34.6C119.28 33.6 118.98 32.35 118.98 30.85V6.45H122.83V30.75C122.83 33.2167 123.98 34.45 126.28 34.45C126.963 34.45 127.621 34.375 128.255 34.225C128.905 34.075 129.63 33.85 130.43 33.55L130.98 36.35C130.13 36.7167 129.28 37.0167 128.43 37.25C127.596 37.4833 126.73 37.6 125.83 37.6ZM115.13 15.8V13.1H130.38V15.8H115.13ZM148.179 37.6C145.412 37.6 143.029 36.9083 141.029 35.525C139.029 34.125 137.487 32.1917 136.404 29.725C135.32 27.2417 134.779 24.3667 134.779 21.1C134.779 17.6167 135.362 14.6833 136.529 12.3C137.712 9.91667 139.312 8.11667 141.329 6.9C143.362 5.66666 145.645 5.05 148.179 5.05C151.529 5.05 154.22 5.89166 156.254 7.575C158.304 9.24167 159.712 11.4167 160.479 14.1L156.279 14.95C155.629 13 154.587 11.45 153.154 10.3C151.737 9.13333 150.079 8.55 148.179 8.55C146.529 8.55 145.004 9.025 143.604 9.975C142.22 10.9083 141.104 12.3083 140.254 14.175C139.404 16.0417 138.979 18.35 138.979 21.1C138.979 23.6 139.312 25.825 139.979 27.775C140.662 29.725 141.679 31.2583 143.029 32.375C144.395 33.4917 146.112 34.05 148.179 34.05C150.662 34.05 152.629 33.3833 154.079 32.05C155.545 30.7167 156.279 28.9667 156.279 26.8H160.529C160.529 29.05 160.012 30.9833 158.979 32.6C157.945 34.2 156.495 35.4333 154.629 36.3C152.779 37.1667 150.629 37.6 148.179 37.6ZM164.193 37L174.993 5.6H179.743L190.293 37H186.193L183.543 28.95H171.043L168.293 37H164.193ZM172.043 25.9H182.543L177.293 10.35L172.043 25.9ZM189.853 8.95V5.6H214.303V8.95H203.128L204.003 8.05V37H200.103V8.05L200.978 8.95H189.853Z" fill="black"/>
<path d="M144.979 6.07931L139.131 2.54496L139.424 9.8259" stroke="black" stroke-width="2.2"/>
<path d="M151 6.14003L156.848 2.60568L156.555 9.88662" stroke="black" stroke-width="2.2"/>
</svg>
